<svg
  id="SvgjsSvg1001"
  width="256"
  height="256"
  xmlns="http://www.w3.org/2000/svg"
  version="1.1"
  xmlns:xlink="http://www.w3.org/1999/xlink"
  xmlns:svgjs="http://svgjs.com/svgjs"
><defs id="SvgjsDefs1002" /><g id="SvgjsG1008"><svg
      xmlns="http://www.w3.org/2000/svg"
      viewBox="0 0 48 48"
      width="256"
      height="256"
    ><g data-name="Layer 1 copy" fill="#000000" class="color000 svgShape"><path
          fill="#e7dece"
          d="M39.689,18.234l.53-.468.53.468a1.317,1.317,0,0,1,.447.989v.7H39.242v-.7A1.317,1.317,0,0,1,39.689,18.234Z"
          class="colore7dece svgShape"
        /><rect
          width="1.954"
          height="1.808"
          x="39.242"
          y="19.919"
          fill="#f5f0e7"
          transform="rotate(-180 40.219 20.822)"
          class="colorf5f0e7 svgShape"
        /><path
          fill="#e7dece"
          d="M15.437,18.234l.53-.468.53.468a1.317,1.317,0,0,1,.447.989v.7H14.99v-.7A1.317,1.317,0,0,1,15.437,18.234Z"
          class="colore7dece svgShape"
        /><rect
          width="1.954"
          height="1.808"
          x="14.99"
          y="19.919"
          fill="#f5f0e7"
          class="colorf5f0e7 svgShape"
        /><path
          fill="#d8cdb8"
          d="M39.244,37.565A21.073,21.073,0,0,0,41.2,36.244V24.821H39.244Z"
          class="colord8cdb8 svgShape"
        /><polygon
          fill="#e7dece"
          points="39.242 21.726 39.242 24.821 39.244 24.821 41.196 24.821 41.196 21.726 39.242 21.726"
          class="colore7dece svgShape"
        /><path
          fill="#d8cdb8"
          d="M14.99,35.7a21.22,21.22,0,0,0,1.954,1.439V24.821H14.99Z"
          class="colord8cdb8 svgShape"
        /><rect
          width="1.954"
          height="3.095"
          x="14.99"
          y="21.726"
          fill="#e7dece"
          class="colore7dece svgShape"
        /><path
          fill="#c3b7a5"
          d="M37.085 35.142a2.425 2.425 0 1 0-4.85 0v5.077a20.792 20.792 0 0 0 4.85-1.512zM30.52 40.46V35.142a2.426 2.426 0 1 0-4.851 0v5.229a21.144 21.144 0 0 0 2.774.2C29.145 40.575 29.836 40.528 30.52 40.46zM23.955 35.142a2.426 2.426 0 1 0-4.851 0v3.224a20.821 20.821 0 0 0 4.851 1.717z"
          class="colorc3b7a5 svgShape"
        /><path
          fill="#d8cdb8"
          d="M31.04,13.14a8.48,8.48,0,0,0-2.95-.53,1.77,1.77,0,0,0-.23.01,8.6,8.6,0,0,0-2.74.53,6.685,6.685,0,0,0,1.39-1.73,2.082,2.082,0,0,1,1.57-1.25h.01a2.082,2.082,0,0,1,1.57,1.25A6.829,6.829,0,0,0,31.04,13.14Z"
          class="colord8cdb8 svgShape"
        /><line
          x1="28.085"
          x2="28.085"
          y1="8.836"
          y2="4.508"
          fill="none"
          stroke="#e7dece"
          stroke-linecap="round"
          stroke-linejoin="round"
          stroke-width=".75"
          class="colorStrokee7dece svgStroke"
        /><circle
          cx="28.085"
          cy="9.244"
          r=".924"
          fill="#d8cdb8"
          class="colord8cdb8 svgShape"
        /><path
          fill="#e7dece"
          d="M36.58,21.1a8.44,8.44,0,0,1-.86,3.72H20.44a8.737,8.737,0,0,1-.83-3.72,8.474,8.474,0,0,1,5.5-7.94l.01-.01a8.6,8.6,0,0,1,2.74-.53,1.77,1.77,0,0,1,.23-.01,8.493,8.493,0,0,1,8.49,8.49Z"
          class="colore7dece svgShape"
        /><path
          fill="#f5f0e7"
          d="M36.58,21.1a8.44,8.44,0,0,1-.86,3.72H24.83a10.521,10.521,0,0,1-.87-4.2,10.119,10.119,0,0,1,3.9-8,1.77,1.77,0,0,1,.23-.01A8.489,8.489,0,0,1,36.58,21.1Z"
          class="colorf5f0e7 svgShape"
        /><path
          fill="#e7dece"
          d="M16.946,37.14A21.272,21.272,0,0,0,19.1,38.366V35.142a2.426,2.426,0,1,1,4.851,0v4.941c.563.123,1.136.212,1.714.288V35.142a2.426,2.426,0,1,1,4.851,0V40.46q.869-.086,1.715-.241V35.142a2.425,2.425,0,1,1,4.85,0v3.565a20.915,20.915,0,0,0,2.157-1.141V30.9h-22.3Z"
          class="colore7dece svgShape"
        /><rect
          width="22.29"
          height="4.08"
          x="16.95"
          y="26.82"
          fill="#b3a999"
          class="colorb3a999 svgShape"
        /><rect
          width="21.69"
          height="3.41"
          x="16.95"
          y="27.49"
          fill="#c3b7a5"
          class="colorc3b7a5 svgShape"
        /><rect
          width="22.296"
          height="1.998"
          x="16.946"
          y="24.821"
          fill="#d8cdb8"
          class="colord8cdb8 svgShape"
        /><rect
          width="22.296"
          height=".826"
          x="16.946"
          y="30.896"
          fill="#d8cdb8"
          class="colord8cdb8 svgShape"
        /><path
          fill="#b3a999"
          d="M34.66 32.716a2.409 2.409 0 0 0-1.444.487 2.4 2.4 0 0 1 3.208 2.285v3.495c.221-.091.444-.178.661-.276V35.142A2.425 2.425 0 0 0 34.66 32.716zM28.1 32.716a2.409 2.409 0 0 0-1.444.487 2.4 2.4 0 0 1 3.208 2.285v5.025c.221-.016.442-.031.661-.053V35.142A2.426 2.426 0 0 0 28.1 32.716zM21.53 32.716a2.407 2.407 0 0 0-1.444.487 2.4 2.4 0 0 1 3.208 2.285v4.428c.22.056.438.118.661.167V35.142A2.426 2.426 0 0 0 21.53 32.716z"
          class="colorb3a999 svgShape"
        /><path
          fill="#ebb12a"
          d="M47.5,28.4A23.715,23.715,0,1,1,19.64.5c-.02.01-.03.02-.05.02A21,21,0,1,0,47.5,28.4Z"
          class="colorebb12a svgShape"
        /><path
          fill="#fcbd55"
          d="M47.5,28.4A22.319,22.319,0,1,1,19.59.52,21,21,0,1,0,47.5,28.4Z"
          class="colorfcbd55 svgShape"
        /></g><g data-name="Layer 1 copy 2" fill="#000000" class="color000 svgShape"><path
          fill="#222221"
          d="M19.1,21.118a8.993,8.993,0,0,0,.31,2.3.494.494,0,0,0,.613.352.5.5,0,0,0,.352-.614,7.986,7.986,0,1,1,15.419.017.5.5,0,0,0,.351.613.48.48,0,0,0,.134.018.5.5,0,0,0,.479-.368A8.979,8.979,0,0,0,31.317,12.7a6.286,6.286,0,0,1-1.263-1.532,2.923,2.923,0,0,0-.908-1.086,1.4,1.4,0,0,0,.3-.866,1.422,1.422,0,0,0-.93-1.325L28.5,4.487a.5.5,0,0,0-1,0L27.513,7.9a1.41,1.41,0,0,0-.615,2.195,2.933,2.933,0,0,0-.9,1.1,6.424,6.424,0,0,1-1.26,1.554A9,9,0,0,0,19.1,21.118ZM28.017,8.8a.425.425,0,1,1-.422.426A.425.425,0,0,1,28.017,8.8Zm-1.112,2.816a1.624,1.624,0,0,1,1.129-.967,1.637,1.637,0,0,1,1.119.957,4.1,4.1,0,0,0,.38.612,8.365,8.365,0,0,0-3,.016A3.99,3.99,0,0,0,26.905,11.617Z"
          class="color222221 svgShape"
        /><path
          fill="#222221"
          d="M47.672 27.8a.5.5 0 0 0-.607.268A20.549 20.549 0 0 1 39.8 36.571l-.053-11.32.954-.005.04 9.007a.5.5 0 1 0 1 0l-.056-12.6-.008-1.807 0-.7a1.823 1.823 0 0 0-.624-1.361l-.532-.465a.5.5 0 0 0-.66 0l-.528.469 0 0a1.818 1.818 0 0 0-.608 1.366l0 .7.008 1.807.012 2.595-21.3.1-.012-2.595-.008-1.808 0-.7a1.821 1.821 0 0 0-.622-1.361l-.532-.465a.5.5 0 0 0-.661 0l-.528.469h0a1.825 1.825 0 0 0-.61 1.367l0 .7.008 1.807.052 11.586a.5.5 0 1 0 1 0L15.5 25.359l.954 0 .025 5.575h0l.024 5.313A20.414 20.414 0 0 1 8.023 21.751a.5.5 0 0 0-.55-.443.5.5 0 0 0-.444.55 21.448 21.448 0 0 0 21.39 19.2h.1a21.588 21.588 0 0 0 17.44-9.086A23.282 23.282 0 0 1 24.329 47h-.107A23.227 23.227 0 0 1 15.8 2.128 21.37 21.37 0 0 0 6.914 18.9a.5.5 0 0 0 .485.515.489.489 0 0 0 .515-.485A20.411 20.411 0 0 1 19.728.973a.5.5 0 0 0-.311-.944A24.226 24.226 0 0 0 24.222 48h.111A24.263 24.263 0 0 0 48.011 28.367.5.5 0 0 0 47.672 27.8zm-7.928-3.545l-.01-2.1.477 0 .477 0 .01 2.094zm.936-3.907l0 .808-.954 0 0-.808.477 0zM40 18.536l.2-.176.2.175a.82.82 0 0 1 .281.613v.2l-.477 0-.478 0v-.2A.822.822 0 0 1 40 18.536zm-1.248 6.719l.005 1-21.3.1 0-1zm-23.27-3.99l0-.808.477 0 .477 0 0 .807-.47 0zm.265-2.62l.2-.176.2.175a.82.82 0 0 1 .281.613v.2l-.477 0-.477 0v-.2A.823.823 0 0 1 15.743 18.645zm-.251 5.714l-.01-2.094.477 0 .477 0 .01 2.095zm1.986 7.067l19.641-.088a.5.5 0 1 0 0-1l-19.642.088-.014-3.077 21.3-.1L38.8 37.2a20.559 20.559 0 0 1-6 2.378l-.02-4.471a1.926 1.926 0 0 1 3.852-.017l.009 2a.5.5 0 1 0 1 0l-.009-2a2.926 2.926 0 0 0-5.852.026l.021 4.654c-.237.04-.474.075-.713.107L31.07 35.11a2.925 2.925 0 0 0-5.85.026l.021 4.655c-.238-.037-.48-.06-.716-.1l-.02-4.547a2.925 2.925 0 0 0-5.85.027l.006 1.5a.5.5 0 0 0 1-.005l-.006-1.5a1.925 1.925 0 0 1 3.85-.017l.019 4.305A20.414 20.414 0 0 1 17.5 36.924zm11.037 8.629H28.42a20.934 20.934 0 0 1-2.179-.123l-.021-4.8a1.925 1.925 0 0 1 3.85-.018l.022 4.869C29.57 40.026 29.044 40.052 28.515 40.055zM40.491 5.618l.748 0 0 .78a.5.5 0 1 0 1 0l0-.781.749 0a.5.5 0 1 0-.005-1l-.749 0 0-.78a.5.5 0 1 0-1 0l0 .78-.748 0a.5.5 0 0 0 .005 1zM35.033 10.974l.748 0 0 .781a.5.5 0 0 0 1 0l0-.78.75 0a.5.5 0 0 0 0-1l-.749 0 0-.78a.5.5 0 0 0-1 0l0 .78-.748 0a.5.5 0 0 0 0 1z"
          class="color222221 svgShape"
        /></g></svg></g></svg>
