<svg width="143" height="99" viewBox="0 0 143 99" fill="none" xmlns="http://www.w3.org/2000/svg">
<path d="M140.336 56.16C140.336 49.5201 140.334 44.6585 140.026 40.8203C139.719 37.0049 139.119 34.3743 138.016 32.1665C135.886 27.9048 132.431 24.4495 128.169 22.32C125.962 21.2168 123.331 20.6165 119.516 20.3099C115.677 20.0015 110.816 20 104.176 20H62.1591C55.5192 20 50.6576 20.0015 46.8194 20.3099C43.004 20.6165 40.3734 21.2168 38.1656 22.32C33.9039 24.4495 30.4486 27.9048 28.3191 32.1665C27.2159 34.3743 26.6156 37.0049 26.309 40.8203C26.0006 44.6585 25.9991 49.5201 25.9991 56.16V60.7941C25.9991 67.434 26.0006 72.2956 26.309 76.1338C26.6156 79.9492 27.2159 82.5798 28.3191 84.7876C30.4486 89.0493 33.9039 92.5046 38.1656 94.6341C40.3734 95.7373 43.004 96.3376 46.8194 96.6442C50.6576 96.9526 55.5192 96.9541 62.1591 96.9541H140.336V56.16Z" fill="#3395FF" stroke="#F5F5F5" stroke-width="4"/>
<path d="M2 38.16C2 31.5201 2.0015 26.6585 2.30994 22.8203C2.61654 19.0049 3.21682 16.3743 4.32002 14.1665C6.44947 9.90477 9.90477 6.44947 14.1665 4.32002C16.3743 3.21682 19.0049 2.61654 22.8203 2.30994C26.6585 2.0015 31.5201 2 38.16 2H80.1769C86.8167 2 91.6784 2.0015 95.5165 2.30994C99.3319 2.61654 101.963 3.21682 104.17 4.32002C108.432 6.44947 111.887 9.90477 114.017 14.1665C115.12 16.3743 115.72 19.0049 116.027 22.8203C116.335 26.6585 116.337 31.5201 116.337 38.16V42.7941C116.337 49.434 116.335 54.2956 116.027 58.1338C115.72 61.9492 115.12 64.5798 114.017 66.7876C111.887 71.0493 108.432 74.5046 104.17 76.6341C101.963 77.7373 99.3319 78.3376 95.5165 78.6442C91.6783 78.9526 86.8167 78.9541 80.1768 78.9541H2V38.16Z" fill="#3395FF" stroke="#F5F5F5" stroke-width="4"/>
<path d="M22.2852 56.2861C22.2852 48.8464 22.2852 45.1265 23.1029 42.0745C25.3221 33.7923 31.7913 27.3231 40.0735 25.1039C43.1255 24.2861 46.8454 24.2861 54.2852 24.2861H80.0536C88.8901 24.2861 96.0536 31.4496 96.0536 40.2861C96.0536 49.1227 88.8901 56.2861 80.0536 56.2861H22.2852Z" fill="#3395FF"/>
<rect x="22.2852" y="24.2861" width="60" height="4" rx="2" fill="#F5F5F5"/>
<rect x="22.2852" y="38.2861" width="70" height="4" rx="2" fill="#F5F5F5"/>
<rect x="22.2852" y="52.2861" width="74" height="4" rx="2" fill="#F5F5F5"/>
</svg>
