<?xml version="1.0" encoding="iso-8859-1"?>
<!-- Uploaded to: SVG Repo, www.svgrepo.com, Generator: SVG Repo Mixer Tools -->
<svg height="800px" width="800px" version="1.1" id="Layer_1" xmlns="http://www.w3.org/2000/svg"
	xmlns:xlink="http://www.w3.org/1999/xlink"
	viewBox="0 0 512.001 512.001" xml:space="preserve">
<path style="fill:#F9A926;" d="M328.931,212.426c-5.166-3.753-7.753-10.114-6.673-16.408l9.808-57.184L290.52,98.335
	c-4.573-4.457-6.218-11.123-4.244-17.197c1.973-6.073,7.222-10.499,13.542-11.416l57.416-8.343L382.91,9.35
	C385.735,3.625,391.566,0,397.952,0c6.386,0,12.217,3.625,15.043,9.35l25.677,52.029l57.416,8.343
	c6.319,0.917,11.569,5.343,13.542,11.416c1.974,6.074,0.328,12.74-4.244,17.197l-41.546,40.498l9.808,57.184
	c1.079,6.294-1.508,12.654-6.673,16.407c-5.167,3.754-12.018,4.247-17.666,1.278l-51.355-27l-51.354,27
	C340.932,216.68,334.086,216.17,328.931,212.426z"/>
<path style="fill:#FFC033;" d="M500.364,299.325c-6.319-3.814-14.382-3.042-19.873,1.879c-0.57,0.514-1.141,1.018-1.711,1.51
	c-35.955,31.537-80.666,47.149-125.277,47.149c-33.517,0-66.966-8.813-96.602-26.359c-0.481-0.268-0.951-0.548-1.431-0.839
	c-12.917-7.784-25.084-17.245-36.19-28.35c-71.317-71.328-74.347-186.058-6.889-261.211c4.921-5.491,5.692-13.554,1.879-19.873
	s-11.306-9.394-18.464-7.594C150.67,17,109.571,40.261,76.949,72.895c-100.539,100.528-100.528,263.235,0,363.752
	c49.397,49.408,113.836,74.493,178.521,75.331c66.955,0.872,134.167-24.257,185.231-75.331
	c32.633-32.622,55.884-73.721,67.257-118.857C509.758,310.632,506.683,303.14,500.364,299.325z"/>
<path style="fill:#F9A926;" d="M507.958,317.79c-11.374,45.136-34.624,86.235-67.257,118.857
	c-51.063,51.075-118.276,76.204-185.231,75.331V322.666c0.481,0.291,0.951,0.57,1.431,0.839
	c29.636,17.547,63.086,26.359,96.602,26.359c44.611,0,89.322-15.612,125.277-47.149c0.57-0.492,1.141-0.995,1.711-1.51
	c5.491-4.921,13.554-5.692,19.873-1.879C506.683,303.14,509.758,310.632,507.958,317.79z"/>
</svg>