<svg width="80" height="80" viewBox="0 0 80 80" fill="none" xmlns="http://www.w3.org/2000/svg">
<rect x="2.5" y="2.5" width="75" height="75" stroke="#63E3FF" stroke-width="5"/>
<path d="M49.8324 21.9091H54.3239V46.4673C54.3239 49.0028 53.7262 51.2667 52.5309 53.2589C51.3477 55.239 49.6754 56.8026 47.5142 57.9496C45.353 59.0845 42.8175 59.652 39.9077 59.652C36.9979 59.652 34.4624 59.0845 32.3011 57.9496C30.1399 56.8026 28.4616 55.239 27.2663 53.2589C26.0831 51.2667 25.4915 49.0028 25.4915 46.4673V21.9091H29.983V46.1051C29.983 47.9162 30.3814 49.5281 31.1783 50.9407C31.9751 52.3413 33.1101 53.446 34.5831 54.255C36.0682 55.0518 37.843 55.4503 39.9077 55.4503C41.9723 55.4503 43.7472 55.0518 45.2322 54.255C46.7173 53.446 47.8523 52.3413 48.6371 50.9407C49.434 49.5281 49.8324 47.9162 49.8324 46.1051V21.9091Z" fill="#63E3FF"/>
</svg>
