<svg xmlns="http://www.w3.org/2000/svg" viewBox="0 0 500 500"><g id="freepik--background-complete--inject-2"><rect y="382.4" width="500" height="0.25" style="fill:#ebebeb"></rect><rect x="104.54" y="389.21" width="33.12" height="0.25" style="fill:#ebebeb"></rect><rect x="171.14" y="398.37" width="40.75" height="0.25" style="fill:#ebebeb"></rect><rect x="52.46" y="395.24" width="51.08" height="0.25" style="fill:#ebebeb"></rect><rect x="356.76" y="390.89" width="93.14" height="0.25" style="fill:#ebebeb"></rect><rect x="341.53" y="390.89" width="6.33" height="0.25" style="fill:#ebebeb"></rect><rect x="277.21" y="395.11" width="42.23" height="0.25" style="fill:#ebebeb"></rect><path d="M237,337.8H43.91a5.71,5.71,0,0,1-5.7-5.71V60.66A5.71,5.71,0,0,1,43.91,55H237a5.71,5.71,0,0,1,5.71,5.71V332.09A5.71,5.71,0,0,1,237,337.8ZM43.91,55.2a5.46,5.46,0,0,0-5.45,5.46V332.09a5.46,5.46,0,0,0,5.45,5.46H237a5.47,5.47,0,0,0,5.46-5.46V60.66A5.47,5.47,0,0,0,237,55.2Z" style="fill:#ebebeb"></path><path d="M453.31,337.8H260.21a5.72,5.72,0,0,1-5.71-5.71V60.66A5.72,5.72,0,0,1,260.21,55h193.1A5.71,5.71,0,0,1,459,60.66V332.09A5.71,5.71,0,0,1,453.31,337.8ZM260.21,55.2a5.47,5.47,0,0,0-5.46,5.46V332.09a5.47,5.47,0,0,0,5.46,5.46h193.1a5.47,5.47,0,0,0,5.46-5.46V60.66a5.47,5.47,0,0,0-5.46-5.46Z" style="fill:#ebebeb"></path><circle cx="213.7" cy="176.71" r="39.62" transform="translate(-28.03 40.84) rotate(-10.25)" style="fill:#fafafa"></circle><path d="M44.4,382.4H454.11s-20.75-24.69-52.48-29.2S315,345.92,315,345.92s-8.54-37.8-45.16-39.53c-4.88-18.38-20.34-102.3-58.18-115.48S175,149,142.86,136.89,73,216.4,65.56,242C47.65,303.34,44.4,382.4,44.4,382.4Z" style="fill:#f0f0f0"></path><path d="M65.55,242A275.35,275.35,0,0,1,75,216.08a34,34,0,0,1,3.33-1.34c23.57-8,56.7,93.66,113.09,42.29,35.39-32.24,55.88-12.37,67.35,6.7,3.54,11.65,6.22,22.55,8.18,30.84-19.38,0-33.83-41.88-55.73-30.14-29.34,15.73-79.1,32-103.16-.72-16.73-22.81-34.48-20.79-43.72-17.45C64.74,244.82,65.14,243.39,65.55,242Z" style="fill:#ebebeb"></path><path d="M57.75,273.79c34.62,3.07,43.84,100.67,164.89,68.2,44.41-11.92,94.48,15.34,125.15,40.41H291.1c-17-17-34.93-34.78-55.07-29.89-65.79,15.95-112.75,14.83-138.66-22.37-13-18.71-30.64-24.91-44.95-26.45C53.92,293.93,55.68,283.84,57.75,273.79Z" style="fill:#ebebeb"></path><path d="M428.77,90.39h-134s.81-10.19,18.37-13.23c-15-6.62,17.89-20.57,53.56-1.26-2.78-6.43,28.94-4.11,38.64,4.65C408.8,74.83,439.05,84.84,428.77,90.39Z" style="fill:#f5f5f5"></path><path d="M187.6,109.81H112.71S95.16,106.3,97.42,97s28.79-1.55,28.79-1.55-8-13,17.63-9.29S172,102.7,172,102.7,205.74,99.58,187.6,109.81Z" style="fill:#f5f5f5"></path><path d="M426.63,243.61h-38s-8.91-1.78-7.76-6.49,14.61-.79,14.61-.79-4.08-6.58,8.95-4.71,14.3,8.39,14.3,8.39S435.84,238.42,426.63,243.61Z" style="fill:#f5f5f5"></path></g><g id="freepik--Shadow--inject-2"><ellipse id="freepik--path--inject-2" cx="250" cy="416.24" rx="193.89" ry="11.32" style="fill:#f5f5f5"></ellipse></g><g id="freepik--beach-ball--inject-2"><circle cx="131.52" cy="359.09" r="53.52" transform="translate(-9.52 3.63) rotate(-1.53)" style="fill:#54A9EB"></circle><ellipse cx="131.52" cy="359.09" rx="53.52" ry="43.79" transform="translate(-219.73 207.87) rotate(-46.59)" style="fill:#fff;opacity:0.5"></ellipse><ellipse cx="131.52" cy="359.09" rx="53.52" ry="28.77" transform="translate(-219.73 207.87) rotate(-46.59)" style="fill:#54A9EB"></ellipse><ellipse cx="131.52" cy="359.09" rx="53.52" ry="12.29" transform="translate(-219.73 207.87) rotate(-46.59)" style="fill:#fff;opacity:0.5"></ellipse></g><g id="freepik--Character--inject-2"><path d="M396.86,410.45a2.66,2.66,0,0,1-1.75-.65l-175.67-150a2.7,2.7,0,0,1,3.5-4.1L398.61,405.71a2.69,2.69,0,0,1-1.75,4.74Z" style="fill:#54A9EB"></path><path d="M281.75,410.45a2.74,2.74,0,0,1-1.68-.58,2.69,2.69,0,0,1-1-2.64l16.81-84a2.69,2.69,0,1,1,5.28,1.05l-15.78,78.8,91.66-41.94a2.69,2.69,0,1,1,2.24,4.89l-96.45,44.14A2.75,2.75,0,0,1,281.75,410.45Z" style="fill:#54A9EB"></path><path d="M221.19,257.7H135.27c22.25,38.05,84,117,145.21,117h74.9C307,374.66,243.44,295.75,221.19,257.7Z" style="fill:#54A9EB"></path><path d="M221.19,257.7H135.27c22.25,38.05,84,117,145.21,117h74.9C307,374.66,243.44,295.75,221.19,257.7Z" style="opacity:0.2"></path><path d="M234,268.27l.61-.65.7-.77c.47-.51.95-1,1.41-1.58.93-1.09,1.85-2.18,2.74-3.3a84.4,84.4,0,0,0,4.95-6.94c.76-1.19,1.47-2.4,2.13-3.61s1.29-2.44,1.85-3.68a41.82,41.82,0,0,0,2.6-7.51l1.63,5.59a13.54,13.54,0,0,0-3.36-2.92,54.79,54.79,0,0,0-5.14-3c-1.83-.95-3.74-1.86-5.69-2.75l-5.87-2.64-.14-.07a3.7,3.7,0,0,1,1.65-7.07,62,62,0,0,1,7,.71,69.15,69.15,0,0,1,6.94,1.46,49,49,0,0,1,7,2.44,24.34,24.34,0,0,1,7.39,4.86,6,6,0,0,1,1.71,5l-.08.57A48.44,48.44,0,0,1,261.38,253a62.09,62.09,0,0,1-4.5,9.53,75.23,75.23,0,0,1-5.75,8.56c-1.06,1.35-2.13,2.68-3.28,4-.57.64-1.15,1.28-1.75,1.91l-.93.94-1,1a7.35,7.35,0,0,1-10.47-10.32Z" style="fill:#ffc3bd"></path><path d="M236.54,227.55l-8.6-1.06-2.85,10.37s8.68,2.23,12.44-3.38Z" style="fill:#ffc3bd"></path><polygon points="221.23 226.43 220.12 235.12 225.09 236.86 227.94 226.49 221.23 226.43" style="fill:#ffc3bd"></polygon><path d="M246.51,350s-23.27-18.15-43-53.11a15.59,15.59,0,0,1,8-22.21c7.43-2.84,15.43-5.53,21.95-7.61a15.56,15.56,0,0,1,17.66,6.09c8.06,12,16,28.92,40.74,49.19a2.58,2.58,0,0,1-.43,4.29Z" style="fill:#54A9EB"></path><path d="M246.51,350s-23.27-18.15-43-53.11a15.59,15.59,0,0,1,8-22.21c7.43-2.84,15.43-5.53,21.95-7.61a15.56,15.56,0,0,1,17.66,6.09c8.06,12,16,28.92,40.74,49.19a2.58,2.58,0,0,1-.43,4.29Z" style="fill:#fff;opacity:0.8"></path><path d="M201.73,292.35c2.92-9.15,5.44-6.39,6.59-5.48,8.93,7.1,13.57,22.42,12.69,36.29a214.2,214.2,0,0,1-17.62-26.43A15,15,0,0,1,201.73,292.35Z" style="opacity:0.2"></path><path d="M203.62,250.8c4.65,5.94,11.75,17.11,9.49,23.23a25.26,25.26,0,0,0,19,.31c7.83-2.81,5.2-5.46,1.71-7.42-8.12,1.17-11-5.05-12.37-10.56Z" style="fill:#ffc3bd"></path><path d="M221.49,256.41l-10-3.1A27.33,27.33,0,0,0,214.2,261c2.12,3.24,7.78,5,12,4.17C223.61,263.05,222.29,259.62,221.49,256.41Z" style="opacity:0.2"></path><path d="M225,227.82c3.62,2.91,5.3,9.55,4,14.17-6.55-10.33-6.64-13.38-6.64-13.38Z" style="fill:#263238"></path><path d="M202.55,242.14c2.32,9.4,3.2,15,8.91,19.21a12.48,12.48,0,0,0,20.14-9.27c.49-8.78-3.38-22.66-13.41-25.2S200.24,232.75,202.55,242.14Z" style="fill:#ffc3bd"></path><path d="M204.19,250.79c2.45-3.37,3.65-10,2.21-14.93,6-1.53,24.57-2.61,19.49-12.59s-12-5.49-12.13-1.92c-11.38-3.3-19,.48-15.9,4-11.72,4.24-7.6,13.75-5,14.89-4.06,4.84-2.27,15.66,4.07,15.9s9.08,5.08,12.66,3.7C208.91,256.16,204.19,250.79,204.19,250.79Z" style="fill:#263238"></path><path d="M216.39,243.19c.11.73.57,1.26,1.05,1.19s.77-.71.67-1.43-.57-1.26-1.05-1.19S216.29,242.47,216.39,243.19Z" style="fill:#263238"></path><path d="M225.31,241.47c.1.73.57,1.26,1,1.19s.78-.71.68-1.43S226.45,240,226,240,225.2,240.75,225.31,241.47Z" style="fill:#263238"></path><path d="M199.67,252.18a8.77,8.77,0,0,0,5.55,3.18c2.88.39,3.8-2.23,2.55-4.7-1.11-2.23-4-5.11-6.63-4.37S198,250,199.67,252.18Z" style="fill:#ffc3bd"></path><path d="M222.43,242.28s2.58,4.21,4.92,6.1c-1.14,1.46-3.59,1.18-3.59,1.18Z" style="fill:#ed847e"></path><path d="M220,253.46a6.87,6.87,0,0,1-4.85-2,.22.22,0,0,1,0-.32.24.24,0,0,1,.33,0,6.65,6.65,0,0,0,5.46,1.73.24.24,0,0,1,.27.19.22.22,0,0,1-.19.26A7.19,7.19,0,0,1,220,253.46Z" style="fill:#263238"></path><path d="M211.05,240.47a.53.53,0,0,1-.23-.06.47.47,0,0,1-.2-.63,4.34,4.34,0,0,1,3.38-2.35.48.48,0,0,1,.51.43.43.43,0,0,1-.41.48h0a3.44,3.44,0,0,0-2.65,1.9A.46.46,0,0,1,211.05,240.47Z" style="fill:#263238"></path><path d="M228.33,238.09a.5.5,0,0,1-.43-.13,3.78,3.78,0,0,0-3.19-1.15.5.5,0,0,1-.56-.37.43.43,0,0,1,.34-.53,4.81,4.81,0,0,1,4,1.41.47.47,0,0,1,0,.65A.57.57,0,0,1,228.33,238.09Z" style="fill:#263238"></path><polygon points="388.93 404.67 400.3 402.58 372.1 376.62 364.18 387.99 388.93 404.67" style="fill:#ffc3bd"></polygon><path d="M388.45,410.83c-.9-2.6-.21-6.11-2.76-10.12,0,0,6-6.07,8.5-3.4s10.26,5.41,19.7,3.25c1.32-.3,1.72,3.65-1.25,4.67-4.91,1.68-8.54,2.85-12.73,4.29-3.58,1.23-4.22,2.33-7,3.5C390.59,414,389.36,413.44,388.45,410.83Z" style="fill:#ffc3bd"></path><path d="M281.2,331.92s37.21,5,59.07,12.7c14.51,5.09,42,39.21,42,39.21L371.15,395s-27.59-18.23-47.83-28.09c-35.43,7-71.34,9.32-76.81-16.88C254.68,344.6,281.2,331.92,281.2,331.92Z" style="fill:#263238"></path><path d="M334.72,344.17l-3.82,26.58c6.16,3.28,12.58,7,18.44,10.51Z" style="opacity:0.2"></path><polygon points="387.92 384.48 371.9 400.24 366.49 395.08 382.96 378.25 387.92 384.48" style="fill:#54A9EB"></polygon><path d="M292.2,323.79s42.18-13.57,64-5.9c14.51,5.09,1.11,53.45,1.11,53.45l-19.76,2.42s-2.19-19.28-4-29.11c-17.93,7.5-70.57,23.4-76-2.8C265.68,336.47,292.2,323.79,292.2,323.79Z" style="fill:#263238"></path><polygon points="345.43 400.24 354.85 400.66 354.06 369.12 340.24 370.12 345.43 400.24" style="fill:#ffc3bd"></polygon><path d="M342,406.27c.79-2.64,3.41-5.07,3.69-9.82,0,0,8.44-1.38,8.88,2.24s5.14,10.39,14.06,14.18c1.24.53-.75,4-3.75,3.05-5-1.51-8.59-2.7-12.83-4-3.62-1.1-4.79-.59-7.72-1.27C341.91,410.09,341.23,408.92,342,406.27Z" style="fill:#ffc3bd"></path><polygon points="359.3 374.21 337.1 377.68 335.71 370.33 358.9 366.25 359.3 374.21" style="fill:#54A9EB"></polygon><path d="M215.66,288.66c.57,6.51,1.13,13.2,1.86,19.72.34,3.26.78,6.5,1.24,9.67a69,69,0,0,0,1.83,8.81,15.6,15.6,0,0,0,.52,1.48c.06.16.12.27.07.21s0,.05-.17-.17l-.22-.22-.16-.15-.17-.12-.1-.06a1.1,1.1,0,0,0-.15-.09c-.15-.06-.07,0,.07.08a4.47,4.47,0,0,0,.62.26,16.34,16.34,0,0,0,1.84.56c1.37.34,2.9.62,4.46.86s3.16.48,4.78.68c6.47.81,13.2,1.34,19.85,2h.07a3.68,3.68,0,0,1,.24,7.28,147,147,0,0,1-20.7,2,71.81,71.81,0,0,1-10.93-.42,31.53,31.53,0,0,1-3.11-.55c-.56-.14-1.14-.3-1.79-.53a12.19,12.19,0,0,1-2.22-1c-.19-.11-.44-.26-.68-.43l-.36-.25L212,338l-.4-.36a6.25,6.25,0,0,1-.44-.45,8.35,8.35,0,0,1-.56-.67,14.86,14.86,0,0,1-1.28-1.93,26.88,26.88,0,0,1-1.47-3.17,48.21,48.21,0,0,1-1.79-5.57c-.47-1.79-.87-3.54-1.24-5.29-.75-3.49-1.28-6.94-1.8-10.38-1-6.9-1.65-13.67-2-20.65a7.36,7.36,0,0,1,14.68-1Z" style="fill:#ffc3bd"></path><path d="M316.56,316l20.91,9.65c1.29.59,2.2,2.47,1.33,2.75L279.27,347a3.62,3.62,0,0,1-2.76-.65L259,335.83c-1.25-.75-2-2.46-1.13-2.71Z" style="fill:#54A9EB"></path><path d="M316.56,316l20.91,9.65c1.29.59,2.2,2.47,1.33,2.75L279.27,347a3.62,3.62,0,0,1-2.76-.65L259,335.83c-1.25-.75-2-2.46-1.13-2.71Z" style="opacity:0.4"></path><rect x="329.87" y="284.24" width="4.98" height="1.08" transform="translate(-68.35 108.74) rotate(-16.87)" style="fill:#54A9EB"></rect><rect x="306.44" y="289.26" width="18.68" height="1.08" transform="translate(-70.52 104.13) rotate(-16.87)" style="fill:#54A9EB"></rect><path d="M341.55,285.36,280.2,304a2.18,2.18,0,0,0-1.47,1.82l-2.16,39.16a.94.94,0,0,0,1.31,1l61.36-18.58a2.2,2.2,0,0,0,1.47-1.83l2.16-39.15A.94.94,0,0,0,341.55,285.36Z" style="fill:#54A9EB"></path><path d="M278.73,305.77l-2.16,39.16a.94.94,0,0,0,1.31,1l2.32-42A2.18,2.18,0,0,0,278.73,305.77Z" style="opacity:0.4"></path><path d="M250.56,331.9l8.4-1.64-.44,11s-9.51.82-11-3.55l.83-3.68A2.79,2.79,0,0,1,250.56,331.9Z" style="fill:#ffc3bd"></path><polygon points="265.25 330.96 268.39 339.12 258.52 341.26 258.96 330.26 265.25 330.96" style="fill:#ffc3bd"></polygon><path d="M310.93,410.45a2.64,2.64,0,0,1-1.74-.65l-175.67-150a2.7,2.7,0,0,1,3.5-4.1L312.68,405.71a2.69,2.69,0,0,1-1.75,4.74Z" style="fill:#54A9EB"></path><path d="M310.93,410.45a2.64,2.64,0,0,1-1.74-.65l-175.67-150a2.7,2.7,0,0,1,3.5-4.1L312.68,405.71a2.69,2.69,0,0,1-1.75,4.74Z" style="fill:#fff;opacity:0.30000000000000004"></path><path d="M195.82,410.45a2.73,2.73,0,0,1-1.67-.58,2.7,2.7,0,0,1-1-2.64l16.82-84a2.69,2.69,0,1,1,5.28,1.05l-15.78,78.8,91.66-41.94a2.69,2.69,0,1,1,2.24,4.89l-96.46,44.14A2.75,2.75,0,0,1,195.82,410.45Z" style="fill:#54A9EB"></path><path d="M195.82,410.45a2.73,2.73,0,0,1-1.67-.58,2.7,2.7,0,0,1-1-2.64l16.82-84a2.69,2.69,0,1,1,5.28,1.05l-15.78,78.8,91.66-41.94a2.69,2.69,0,1,1,2.24,4.89l-96.46,44.14A2.75,2.75,0,0,1,195.82,410.45Z" style="fill:#fff;opacity:0.30000000000000004"></path></g><g id="freepik--E-mails--inject-2"><path d="M330,257.16a.5.5,0,0,1-.45-.27l-11.26-22a57.51,57.51,0,1,1,23.4,0l-11.25,22A.48.48,0,0,1,330,257.16Zm0-135A56.5,56.5,0,0,0,318.71,234a.5.5,0,0,1,.34.26L330,255.56l10.91-21.32a.52.52,0,0,1,.35-.26A56.5,56.5,0,0,0,330,122.11Z" style="fill:#54A9EB"></path><path d="M286.78,181.64l6.9,28.39a4.32,4.32,0,0,0,5.22,3.17l64.59-15.71a4.34,4.34,0,0,0,3.18-5.22l-6.9-28.38a4.43,4.43,0,0,0-.69-1.49,4.33,4.33,0,0,0-4.53-1.69L290,176.42A4.35,4.35,0,0,0,286.7,180,4.15,4.15,0,0,0,286.78,181.64Z" style="fill:#54A9EB"></path><path d="M286.7,180l45.44,18.83,26.94-36.43a4.33,4.33,0,0,0-4.53-1.69L290,176.42A4.35,4.35,0,0,0,286.7,180Z" style="opacity:0.1"></path><path d="M286.7,180l46,15,26.36-32.56a4.33,4.33,0,0,0-4.53-1.69L290,176.42A4.35,4.35,0,0,0,286.7,180Z" style="fill:#54A9EB"></path><path d="M286.7,180l46,15,26.36-32.56a4.33,4.33,0,0,0-4.53-1.69L290,176.42A4.35,4.35,0,0,0,286.7,180Z" style="fill:#fff;opacity:0.1"></path><polygon points="362 173.09 308.3 171.96 324.95 167.91 361.28 170.13 362 173.09" style="opacity:0.1"></polygon><path d="M313.73,137.7l-1.73,26a3.86,3.86,0,0,0,3.58,4.1l59.05,3.93a3.86,3.86,0,0,0,4.1-3.58l1.73-25.95a3.88,3.88,0,0,0-3.59-4.1l-59.05-3.93a3.87,3.87,0,0,0-3.72,2.17A3.68,3.68,0,0,0,313.73,137.7Z" style="fill:#54A9EB"></path><path d="M314.1,136.29l33.55,28.14,32.62-23.73a3.85,3.85,0,0,0-3.4-2.65l-59.05-3.93A3.87,3.87,0,0,0,314.1,136.29Z" style="opacity:0.1"></path><path d="M314.1,136.29l43.34,23.38,22.83-19a3.85,3.85,0,0,0-3.4-2.65l-59.05-3.93A3.87,3.87,0,0,0,314.1,136.29Z" style="fill:#54A9EB"></path><path d="M314.1,136.29l43.34,23.38,22.83-19a3.85,3.85,0,0,0-3.4-2.65l-59.05-3.93A3.87,3.87,0,0,0,314.1,136.29Z" style="fill:#fff;opacity:0.2"></path></g></svg>
