<svg xmlns="http://www.w3.org/2000/svg" viewBox="0 0 500 500"><g id="freepik--background-complete--inject-3"><path d="M444.71,349.14H264a5.87,5.87,0,0,1-5.86-5.86V80A5.87,5.87,0,0,1,264,74.15H444.71A5.87,5.87,0,0,1,450.57,80V343.28A5.87,5.87,0,0,1,444.71,349.14ZM264,74.4A5.61,5.61,0,0,0,258.35,80V343.28a5.61,5.61,0,0,0,5.61,5.61H444.71a5.61,5.61,0,0,0,5.61-5.61V80a5.61,5.61,0,0,0-5.61-5.61Z" style="fill:#f0f0f0"></path><path d="M236.28,349.14H55.53a5.87,5.87,0,0,1-5.86-5.86V80a5.87,5.87,0,0,1,5.86-5.86H236.28A5.87,5.87,0,0,1,242.14,80V343.28A5.87,5.87,0,0,1,236.28,349.14ZM55.53,74.4A5.61,5.61,0,0,0,49.92,80V343.28a5.61,5.61,0,0,0,5.61,5.61H236.28c3.1,0,5.61-2.51,6.34-6.16V79.45a7,7,0,0,0-6.34-5Z" style="fill:#f0f0f0"></path><rect y="410.21" width="500" height="0.25" style="fill:#f0f0f0"></rect><path d="M325.26,140.56c1.64,0,3.05.6,3.05,2.41,0,2.32-2.24,5.34-7.29,5.34-2.63,0-5.23-.8-5.23-2.39,0-1.27,1.61-2.43,3.26-3.18H319c-.91,0-2.6-.24-2.6-2,0-1.12.77-2.17,3.25-3.29a3.67,3.67,0,0,1-2.41-3.71c0-2.86,2.07-4.11,4.8-4.11a7.08,7.08,0,0,1,1.84.23,5.65,5.65,0,0,1,.92-2.31,2.24,2.24,0,0,1,1.78-.87,1.28,1.28,0,0,1,1.37,1.36,1.22,1.22,0,0,1-1.24,1.25c-.94,0-1.22-.62-1.39-1.64a3.22,3.22,0,0,0-.7,1.27,7.69,7.69,0,0,0-.27,1.08,3.68,3.68,0,0,1,2.51,3.74c0,2.86-2.09,4.12-4.82,4.12a6.76,6.76,0,0,1-1.92-.25c-1.17.63-2.18,1.26-2.18,2.06,0,.58.35.87,1.24.87Zm1.25,3.63c0-.95-.39-1.45-2-1.45h-4.84a3.09,3.09,0,0,0-1.77,2.64c0,1.76,2.06,2.49,3.8,2.49C323.91,147.87,326.51,146.7,326.51,144.19Zm-6.87-10.43c0,2.78.91,3.65,2.36,3.65s2.38-.87,2.38-3.65-.92-3.65-2.38-3.65S319.64,131,319.64,133.76Z" style="fill:#f0f0f0"></path><path d="M123,221.22c1.54,0,2.86.56,2.86,2.26,0,2.17-2.1,5-6.82,5-2.47,0-4.91-.75-4.91-2.24,0-1.19,1.51-2.27,3.06-3h-.08c-.86,0-2.45-.23-2.45-1.86,0-1,.73-2,3-3.09a3.42,3.42,0,0,1-2.26-3.47c0-2.68,1.94-3.85,4.5-3.85a6.72,6.72,0,0,1,1.73.21,5.23,5.23,0,0,1,.86-2.16,2.07,2.07,0,0,1,1.66-.81,1.2,1.2,0,0,1,1.29,1.27,1.15,1.15,0,0,1-1.17,1.17c-.88,0-1.14-.59-1.29-1.54a2.84,2.84,0,0,0-.66,1.19,7.44,7.44,0,0,0-.25,1,3.46,3.46,0,0,1,2.35,3.51c0,2.68-2,3.85-4.52,3.85a6.78,6.78,0,0,1-1.8-.22c-1.09.58-2,1.18-2,1.93,0,.53.33.81,1.16.81Zm1.18,3.4c0-.89-.37-1.35-1.86-1.35h-4.53a2.87,2.87,0,0,0-1.66,2.46c0,1.66,1.93,2.34,3.56,2.34C121.72,228.07,124.16,227,124.16,224.62Zm-6.44-9.77c0,2.6.85,3.41,2.21,3.41s2.23-.81,2.23-3.41-.86-3.42-2.23-3.42S117.72,212.24,117.72,214.85Z" style="fill:#f0f0f0"></path><path d="M423.23,225.25c0,1.27.38,1.86,1.61,1.86v.44c-.44,0-.89-.06-1.31-.06a6.65,6.65,0,0,0-2.2.3v-2.5a3.65,3.65,0,0,1-3.48,2.54,2.91,2.91,0,0,1-2.2-.81,3.89,3.89,0,0,1-.7-2.77v-5.31c0-1.27-.37-1.87-1.6-1.87v-.44c.44,0,.89.06,1.31.06a7,7,0,0,0,2.2-.29v8.32c0,1.31.08,2.43,1.6,2.43s2.87-1.68,2.87-3.84v-4.37c0-1.27-.39-1.87-1.62-1.87v-.44q.68.06,1.32.06a7,7,0,0,0,2.2-.29Z" style="fill:#f0f0f0"></path><path d="M402.6,206.62c0,7.07-4.28,11.74-11.74,11.74-1,0-3.15-.1-4.54-.1s-3.12,0-4,.1v-.65c2.2-.09,2.63-.43,2.63-2.79V198.83c0-2.36-.43-2.69-2.63-2.78v-.65c.75,0,2,.11,3.17.11l.79,0c1.49,0,3.66-.09,4.9-.09C398.87,195.4,402.6,199.39,402.6,206.62Zm-14.67-7.85V215c0,2.26.43,2.78,2.44,2.78,7.06,0,9-4,9-11,0-7.27-2.3-10.77-9-10.77C388.36,196,387.93,196.54,387.93,198.77Z" style="fill:#f0f0f0"></path><path d="M351.87,107.68c-1.75.07-2.09.33-2.09,2.21v12.77c0,1.87.34,2.13,2.09,2.13h1.88c3.22,0,3.86-1.23,4.22-4.81h.6a20.74,20.74,0,0,0-.08,2.11c0,.64.05,2,.18,3.29-1.75-.07-4.18-.07-5.9-.07-1.54,0-4.94,0-7.46.07v-.51c1.74-.08,2.08-.34,2.08-2.21V109.89c0-1.88-.34-2.14-2.08-2.21v-.52c.71,0,2,.08,3.29.08,1.18,0,2.47,0,3.27-.08Z" style="fill:#f0f0f0"></path><path d="M372.74,209.29v.47c-.63.14-1.34.64-1.89,2.07l-5.59,14.43h-.38l-5.81-15c-.48-1.21-1.14-1.5-1.64-1.53v-.47c.64,0,1.64.07,2.54.07,1.24,0,2.39,0,3-.07v.47c-1.14.05-1.69.23-1.69.89a3.36,3.36,0,0,0,.28,1.11l4.32,11.44,3.88-10a5.91,5.91,0,0,0,.47-1.94c0-1.05-.72-1.41-2.08-1.45v-.47c.91,0,1.91.07,2.75.07S372.26,209.33,372.74,209.29Z" style="fill:#f0f0f0"></path><path d="M306.23,97.67c1.31,1.33,1.65,2.86,1.65,5.78V114.9c0,1.33.32,1.95,1.27,1.95A2.8,2.8,0,0,0,311,116l.46.71a5.54,5.54,0,0,1-3.76,1.51c-2.88,0-3.55-1.73-3.55-3.66a7.2,7.2,0,0,1-6.34,3.66c-2.75,0-5.23-1.39-5.23-4.61s2.52-4.71,6.64-6.44c2.76-1.15,4.93-1.85,4.93-3.5v-2.56c0-3.46-1.69-4.14-3.82-4.14-1.41,0-3.14.28-4.09,1.46a2.56,2.56,0,0,1,1.94,2.52,2.16,2.16,0,0,1-2.42,2.23,2.25,2.25,0,0,1-2.23-2.55,3.66,3.66,0,0,1,1.93-2.94,10.67,10.67,0,0,1,5.78-1.55A7.05,7.05,0,0,1,306.23,97.67Zm-2.08,7.67c-.44.66-1.34,1.09-3.94,2.35-1.81.87-4,2.06-4,5.24,0,2.47,1.41,3.62,3.3,3.62,1.66,0,3.27-.87,4.65-3.12Z" style="fill:#f0f0f0"></path><path d="M86.81,203.12c1.31,1.32,1.65,2.85,1.65,5.77v11.45c0,1.33.32,2,1.27,2a2.82,2.82,0,0,0,1.85-.87l.46.7a5.47,5.47,0,0,1-3.76,1.51c-2.88,0-3.54-1.73-3.54-3.66a7.19,7.19,0,0,1-6.34,3.66c-2.76,0-5.24-1.38-5.24-4.6s2.52-4.71,6.65-6.45c2.75-1.14,4.93-1.85,4.93-3.5v-2.55c0-3.46-1.69-4.15-3.83-4.15-1.41,0-3.14.28-4.08,1.47a2.55,2.55,0,0,1,1.93,2.52,2.16,2.16,0,0,1-2.42,2.23,2.27,2.27,0,0,1-2.23-2.56A3.68,3.68,0,0,1,76,203.12a10.59,10.59,0,0,1,5.78-1.55A7.05,7.05,0,0,1,86.81,203.12Zm-2.07,7.66c-.45.67-1.35,1.09-3.95,2.36-1.81.86-4,2.05-4,5.23,0,2.48,1.41,3.62,3.3,3.62,1.65,0,3.26-.86,4.65-3.12Z" style="fill:#f0f0f0"></path><path d="M133.39,256.33c5,.67,6.43,3.13,6.43,5.68,0,3.59-2.84,6.11-7.56,6.11-.94,0-2.84-.09-5.42-.09-1.48,0-3,0-3.91.09v-.63c2.14-.09,2.56-.42,2.56-2.71V249.15c0-2.29-.42-2.62-2.56-2.71v-.63c.88.06,2.46.09,3.85.09,2,0,4-.06,4.75-.06,4.42,0,6.65,2,6.65,5,0,2.23-1.26,4.4-4.79,5.47Zm-5-7.18v7.12h2.12c3.71,0,4.63-2.4,4.63-5.14,0-3.09-1.26-4.69-4.41-4.69C128.82,246.44,128.41,247,128.41,249.15Zm8.26,12.72c0-3.2-1.61-5.06-5.61-5.06h-2.65v8c0,2.2.41,2.62,2.37,2.62C134.9,267.4,136.67,265.41,136.67,261.87Z" style="fill:#f0f0f0"></path><path d="M79.82,259.2a1.89,1.89,0,0,0,1,.42c.38,0,.54-.45.66-1.31h.68c-.08,1.05-.14,2.33-.14,6.1h-.69c-.22-2.85-1.59-5.75-4.9-5.75a3.42,3.42,0,0,0-3.65,3.47c0,2.72,2.34,3.8,5,5.47,3.11,1.94,5.38,3.52,5.38,6.73,0,3.79-2.87,5.68-6.34,5.68a7,7,0,0,1-4.09-1.11,2,2,0,0,0-1-.43c-.38,0-.54.46-.66,1.32h-.68c.09-1.23.12-3,.12-7.17h.68c.25,3.62,1.62,6.79,5.44,6.79a3.69,3.69,0,0,0,3.88-4c0-2.42-1.88-3.79-4.65-5.45s-5.32-3.33-5.32-6.7c0-3.53,2.67-5.18,5.61-5.18A5.63,5.63,0,0,1,79.82,259.2Z" style="fill:#f0f0f0"></path><path d="M106.59,250.1a5.85,5.85,0,0,1-5.59,4c-4.34,0-6.88-3.17-6.88-7.75,0-5.25,2.66-8.48,6.76-8.48,3.5,0,5.59,2.06,5.59,6.57H97.13a16.34,16.34,0,0,0-.1,1.91c0,4.1,2.27,6.49,4.57,6.49a4.54,4.54,0,0,0,4.39-3Zm-9.5-6.22h6.5c.11-2.92-.83-5.43-2.83-5.43C99,238.45,97.41,240.12,97.09,243.88Z" style="fill:#f0f0f0"></path><rect x="326.56" y="167.42" width="96.51" height="6.54" style="fill:#e6e6e6"></rect><polygon points="336.55 173.96 340.23 182.01 343.91 182.01 343.91 173.96 336.55 173.96" style="fill:#e0e0e0"></polygon><polygon points="413.09 173.96 409.4 182.01 405.72 182.01 405.72 173.96 413.09 173.96" style="fill:#e0e0e0"></polygon><rect x="375.37" y="133.67" width="6.85" height="33.75" style="fill:#f0f0f0"></rect><rect x="375.37" y="159.81" width="6.85" height="1.31" style="fill:#e6e6e6"></rect><rect x="375.37" y="156.41" width="6.85" height="1.31" style="fill:#e6e6e6"></rect><rect x="382.22" y="133.67" width="20.45" height="33.75" style="fill:#f5f5f5"></rect><rect x="389.88" y="133.67" width="6.85" height="33.75" style="fill:#f0f0f0"></rect><rect x="389.88" y="159.81" width="6.85" height="1.31" style="fill:#e6e6e6"></rect><rect x="396.73" y="133.67" width="20.45" height="33.75" style="fill:#f5f5f5"></rect><rect x="401.9" y="140.82" width="11.58" height="2.74" style="fill:#e6e6e6"></rect><rect x="341.4" y="160.92" width="33.97" height="6.5" style="fill:#f5f5f5"></rect><rect x="333.09" y="160.92" width="33.97" height="6.5" style="fill:#f0f0f0"></rect><path d="M104,383.07l-1.38,3.77-.27.77-.16.42-.23.64-.89,2.42-.06.16-.14.41-.46,1.25-.52,1.42-.17.48,0,.06-.24.67-1.22,3.31-.26.73-2.43,6.67-.19.5-.48,1.32a2.89,2.89,0,0,1-.86,1.2,3.41,3.41,0,0,1-.49.31,2.54,2.54,0,0,1-1.06.29H76.5a3.07,3.07,0,0,1-.74-.1,2.66,2.66,0,0,1-.55-.23,2.73,2.73,0,0,1-1.29-1.48l-2-5.4L71.7,402l-1.39-3.82-.16-.42-.07-.2-.24-.66-1.37-3.76-.09-.23-.07-.19-.59-1.63-.27-.74-.22-.6-.21-.54-.15-.43,0-.11-.65-1.78,0-.05-.16-.43-1.21-3.34Z" style="fill:#e0e0e0"></path><path d="M72.07,366.6s5.52-2,7,3.83,5.52,4.34,6.29,3.06c1.53-2.52,1.74-11.65-.88-12.2C81.29,360.63,73.18,363.94,72.07,366.6Z" style="fill:#e0e0e0"></path><path d="M75.36,359.38a6.05,6.05,0,0,0-7.65,4.05c-2.08,5.84,0,20.2,0,20.2a10.46,10.46,0,0,0,6.36-6.44c1.56-4.93,1.4-15.77,10.36-15.9Z" style="fill:#f0f0f0"></path><path d="M76.5,359.73c-4.85,2.82-5.63,8.81-6.12,13.87,0,.26.39.26.41,0,.48-4.91,1.21-10.77,5.92-13.51a.21.21,0,0,0-.21-.36Z" style="fill:#e0e0e0"></path><path d="M94.77,328.33s-5.43-2.23-7.09,3.55-5.58,5.32-6.28,2.89c-.82-2.83-1.4-11.81,1.24-12.25C85.8,322,93.78,325.63,94.77,328.33Z" style="fill:#e0e0e0"></path><path d="M91.78,321a6.05,6.05,0,0,1,7.48,4.35c1.84,5.92-.82,20.19-.82,20.19a10.46,10.46,0,0,1-6.09-6.7c-1.36-5-.76-15.82-9.71-16.31Z" style="fill:#f0f0f0"></path><path d="M90.17,321.54c5.15,4,6,10.85,6.64,16.9,0,.26.44.26.41,0-.65-6.15-1.53-13.11-6.76-17.19-.21-.16-.5.13-.29.29Z" style="fill:#e0e0e0"></path><path d="M100.55,355.15s-3.39-1-7,3.83c-3.42,4.68-4.79,5.22-7.11,3.41s-.92-12,1.7-12.56C91.33,349.17,99.44,352.49,100.55,355.15Z" style="fill:#e0e0e0"></path><path d="M100.53,347.08s8-2.57,10.93,5.77,0,28.84,0,28.84-6.86-2.15-9.09-9.19-1.64-22.4-14.43-22.58C90.5,349.14,95.5,348.11,100.53,347.08Z" style="fill:#f0f0f0"></path><path d="M98.33,348a19.88,19.88,0,0,1,10.58,17.52.21.21,0,0,0,.41,0,20.31,20.31,0,0,0-10.78-17.88c-.23-.12-.44.24-.21.36Z" style="fill:#e0e0e0"></path><path d="M68.2,341.6s5.52-2,6.94,3.84,8.62,8.07,9.36,5.21c.78-3-1-13.9-3.58-14.45C77.79,335.54,69.3,338.94,68.2,341.6Z" style="fill:#e0e0e0"></path><path d="M68.21,333.54s-7.95-2.57-10.92,5.77,0,28.84,0,28.84,6.86-2.15,9.08-9.2,2-22.51,14.78-22.7Z" style="fill:#f0f0f0"></path><path d="M71.41,334.25a11.14,11.14,0,0,0-8.32,5.09c-2.34,3.36-3.15,7.52-3.92,11.47-.05.26.35.37.4.11.73-3.73,1.47-7.61,3.54-10.86,1.82-2.88,4.8-5.23,8.3-5.4.26,0,.26-.43,0-.41Z" style="fill:#e0e0e0"></path><path d="M84,383.07h1.4c3.52-14.92,1.15-30.91-1.51-41.81a128.73,128.73,0,0,0-6.94-20.83.68.68,0,0,0-.9-.33.69.69,0,0,0-.34.9,126.85,126.85,0,0,1,6.86,20.61C85.19,352.44,87.54,368.33,84,383.07Z" style="fill:#f0f0f0"></path></g><g id="freepik--Shadow--inject-3"><ellipse cx="250.12" cy="438.79" rx="200.45" ry="10.01" style="fill:#f5f5f5"></ellipse></g><g id="freepik--Typewriter--inject-3"><path d="M346.81,314.61H156v-39a4.34,4.34,0,0,1,4.34-4.35H342.46a4.35,4.35,0,0,1,4.35,4.35Z" style="fill:#54A9EB"></path><g style="opacity:0.2"><path d="M160.37,271.29h182.1a4.33,4.33,0,0,1,4.33,4.33v39a0,0,0,0,1,0,0H156a0,0,0,0,1,0,0v-39A4.33,4.33,0,0,1,160.37,271.29Z"></path></g><rect x="160.34" y="202.63" width="182.17" height="111.97" style="fill:#263238"></rect><g style="opacity:0.9"><rect x="160.34" y="202.63" width="182.17" height="111.97" style="fill:#fff"></rect></g><g style="opacity:0.2"><path d="M321.54,237.08H179.89a.5.5,0,0,1,0-1H321.54a.5.5,0,1,1,0,1Z"></path></g><g style="opacity:0.2"><path d="M321.54,244.66H179.89a.5.5,0,0,1,0-1H321.54a.5.5,0,1,1,0,1Z"></path></g><g style="opacity:0.2"><path d="M321.54,252.24H179.89a.5.5,0,0,1-.5-.5.51.51,0,0,1,.5-.5H321.54a.51.51,0,0,1,.51.5A.5.5,0,0,1,321.54,252.24Z"></path></g><g style="opacity:0.2"><path d="M321.54,259.83H179.89a.51.51,0,0,1,0-1H321.54a.51.51,0,1,1,0,1Z"></path></g><g style="opacity:0.2"><path d="M321.54,267.41H179.89a.51.51,0,0,1-.5-.5.5.5,0,0,1,.5-.5H321.54a.5.5,0,0,1,.51.5A.51.51,0,0,1,321.54,267.41Z"></path></g><g style="opacity:0.2"><path d="M225.8,275H179.89a.5.5,0,0,1,0-1H225.8a.5.5,0,0,1,0,1Z"></path></g><g style="opacity:0.2"><path d="M321.54,297.74H179.89a.51.51,0,0,1,0-1H321.54a.51.51,0,1,1,0,1Z"></path></g><g style="opacity:0.2"><path d="M287.47,224.6H214a.5.5,0,0,1,0-1h73.5a.5.5,0,0,1,0,1Z"></path></g><path d="M380.85,437.06h-259a5.32,5.32,0,0,1-5.26-6.15l.53-3.4.11-.66,16-101.15c.06-.37.13-.74.22-1.1l.18-.65a13.13,13.13,0,0,1,12.59-9.34h210.3A13.15,13.15,0,0,1,369.07,324l.18.65c.08.36.15.73.21,1.1l16,101.15.11.66.54,3.4A5.33,5.33,0,0,1,380.85,437.06Z" style="fill:#54A9EB"></path><polygon points="385.57 427.51 117.08 427.51 117.19 426.85 385.46 426.85 385.57 427.51" style="fill:#263238"></polygon><g style="opacity:0.30000000000000004"><path d="M144.79,360.18l-8.62,52a2.91,2.91,0,0,0,2.87,3.38H363.62a2.9,2.9,0,0,0,2.86-3.38l-8.62-52a2.9,2.9,0,0,0-2.86-2.43H147.66A2.91,2.91,0,0,0,144.79,360.18Z"></path></g><path d="M161.79,368.21a4.71,4.71,0,1,1-4.71-4.71A4.71,4.71,0,0,1,161.79,368.21Z" style="fill:#fff"></path><path d="M176.39,368.21a4.72,4.72,0,1,1-4.72-4.71A4.71,4.71,0,0,1,176.39,368.21Z" style="fill:#fff"></path><path d="M191,368.21a4.71,4.71,0,1,1-4.71-4.71A4.71,4.71,0,0,1,191,368.21Z" style="fill:#fff"></path><path d="M205.57,368.21a4.71,4.71,0,1,1-4.71-4.71A4.71,4.71,0,0,1,205.57,368.21Z" style="fill:#fff"></path><path d="M220.17,368.21a4.72,4.72,0,1,1-4.71-4.71A4.71,4.71,0,0,1,220.17,368.21Z" style="fill:#fff"></path><path d="M234.76,368.21a4.71,4.71,0,1,1-4.71-4.71A4.71,4.71,0,0,1,234.76,368.21Z" style="fill:#fff"></path><path d="M249.36,368.21a4.72,4.72,0,1,1-4.71-4.71A4.71,4.71,0,0,1,249.36,368.21Z" style="fill:#fff"></path><path d="M264,368.21a4.71,4.71,0,1,1-4.71-4.71A4.71,4.71,0,0,1,264,368.21Z" style="fill:#fff"></path><path d="M278.55,368.21a4.72,4.72,0,1,1-4.72-4.71A4.71,4.71,0,0,1,278.55,368.21Z" style="fill:#fff"></path><path d="M293.14,368.21a4.71,4.71,0,1,1-4.71-4.71A4.71,4.71,0,0,1,293.14,368.21Z" style="fill:#fff"></path><path d="M307.74,368.21A4.72,4.72,0,1,1,303,363.5,4.71,4.71,0,0,1,307.74,368.21Z" style="fill:#fff"></path><path d="M322.33,368.21a4.72,4.72,0,1,1-4.71-4.71A4.71,4.71,0,0,1,322.33,368.21Z" style="fill:#fff"></path><path d="M336.92,368.21a4.71,4.71,0,1,1-4.71-4.71A4.71,4.71,0,0,1,336.92,368.21Z" style="fill:#fff"></path><path d="M351.52,368.21a4.72,4.72,0,1,1-4.71-4.71A4.71,4.71,0,0,1,351.52,368.21Z" style="fill:#fff"></path><circle cx="157.08" cy="384.04" r="4.71" style="fill:#fff"></circle><circle cx="171.67" cy="384.04" r="4.71" style="fill:#fff"></circle><path d="M191,384a4.71,4.71,0,1,1-4.71-4.72A4.71,4.71,0,0,1,191,384Z" style="fill:#fff"></path><path d="M205.57,384a4.71,4.71,0,1,1-4.71-4.72A4.71,4.71,0,0,1,205.57,384Z" style="fill:#fff"></path><circle cx="215.46" cy="384.04" r="4.71" style="fill:#fff"></circle><circle cx="230.05" cy="384.04" r="4.71" style="fill:#fff"></circle><path d="M249.36,384a4.72,4.72,0,1,1-4.71-4.72A4.71,4.71,0,0,1,249.36,384Z" style="fill:#fff"></path><path d="M264,384a4.71,4.71,0,1,1-4.71-4.72A4.71,4.71,0,0,1,264,384Z" style="fill:#fff"></path><circle cx="273.83" cy="384.04" r="4.71" style="fill:#fff"></circle><circle cx="288.43" cy="384.04" r="4.71" style="fill:#fff"></circle><path d="M307.74,384a4.72,4.72,0,1,1-4.72-4.72A4.71,4.71,0,0,1,307.74,384Z" style="fill:#fff"></path><path d="M322.33,384a4.72,4.72,0,1,1-4.71-4.72A4.71,4.71,0,0,1,322.33,384Z" style="fill:#fff"></path><circle cx="332.21" cy="384.04" r="4.71" style="fill:#fff"></circle><circle cx="346.81" cy="384.04" r="4.71" style="fill:#fff"></circle><path d="M191,399.86a4.71,4.71,0,1,1-4.71-4.71A4.71,4.71,0,0,1,191,399.86Z" style="fill:#fff"></path><path d="M322.33,399.86a4.72,4.72,0,1,1-4.71-4.71A4.71,4.71,0,0,1,322.33,399.86Z" style="fill:#fff"></path><rect x="200.86" y="396.43" width="105.86" height="8.14" rx="4.06" style="fill:#fff"></rect><path d="M369.25,324.6H133.41l.18-.65H369.07Z" style="fill:#263238"></path><polygon points="147.35 307.99 146.44 314.61 230.25 314.61 230.25 307.99 147.35 307.99" style="fill:#263238"></polygon><polygon points="272.4 307.99 272.4 314.61 356.22 314.61 355.31 307.99 272.4 307.99" style="fill:#263238"></polygon><path d="M335.64,308h-1V289.61a2.28,2.28,0,0,0-2.27-2.28H170.29a2.28,2.28,0,0,0-2.27,2.28V308h-1V289.61a3.28,3.28,0,0,1,3.28-3.28H332.37a3.28,3.28,0,0,1,3.27,3.28Z" style="fill:#263238"></path><rect x="175.67" y="284.21" width="31.04" height="5.25" style="fill:#54A9EB"></rect><rect x="296.18" y="284.21" width="31.04" height="5.25" style="fill:#54A9EB"></rect><polygon points="255.94 302.54 255.94 314.61 244.1 314.61 244.1 302.54 248.56 302.54 248.56 305.66 251.47 305.66 251.47 302.54 255.94 302.54" style="fill:#54A9EB"></polygon><g style="opacity:0.2"><polygon points="255.94 302.54 255.94 314.61 244.1 314.61 244.1 302.54 248.56 302.54 248.56 305.66 251.47 305.66 251.47 302.54 255.94 302.54"></polygon></g><rect x="140.17" y="294" width="20.17" height="6.47" style="fill:#263238"></rect><g style="opacity:0.5"><rect x="140.17" y="294" width="20.17" height="6.47" style="fill:#fff"></rect></g><rect x="140.17" y="289.89" width="8.06" height="15.04" style="fill:#54A9EB"></rect><rect x="121.98" y="330.48" width="256.64" height="7.19" rx="3.59" style="fill:#54A9EB"></rect><g style="opacity:0.30000000000000004"><rect x="121.98" y="330.48" width="256.64" height="7.19" rx="3.59" style="fill:#fff"></rect></g><circle cx="147.21" cy="348.36" r="3.01" style="fill:#263238"></circle><circle cx="157.08" cy="348.36" r="3.01" style="fill:#263238"></circle></g><g id="freepik--Books--inject-3"><rect x="371.19" y="241.23" width="29.79" height="195.83" rx="2.28" style="fill:#54A9EB"></rect><rect x="371.2" y="241.23" width="29.79" height="195.83" rx="2.28" style="fill:#fff;opacity:0.4"></rect><rect x="371.2" y="267.8" width="29.79" height="2.77" style="fill:#263238"></rect><rect x="371.2" y="412.19" width="29.79" height="11.1" style="fill:#263238"></rect><rect x="371.2" y="403.72" width="29.79" height="2.77" style="fill:#263238"></rect><path d="M437.62,435.73l-24.23,1.19a2.75,2.75,0,0,1-2.89-2.62l-8.42-170.65-.14-2.69-.19-4-.13-2.69-.5-10.05a2.76,2.76,0,0,1,2.62-2.89l24.24-1.2a2.75,2.75,0,0,1,2.89,2.62l.5,10.05.13,2.69.19,4,.14,2.69,8.42,170.66A2.77,2.77,0,0,1,437.62,435.73Z" style="fill:#54A9EB"></path><rect x="416.89" y="374.38" width="14.94" height="52.25" rx="0.75" transform="translate(-21.19 23.71) rotate(-3.12)" style="opacity:0.2"></rect><polygon points="431.5 255.5 401.75 256.96 401.62 254.28 431.37 252.81 431.5 255.5" style="fill:#263238"></polygon><polygon points="431.83 262.17 402.08 263.65 401.94 260.96 431.69 259.49 431.83 262.17" style="fill:#263238"></polygon></g><g id="freepik--Letters--inject-3"><path d="M132.21,124.29c0,2.48.74,3.62,3.14,3.62v.87c-.87-.08-1.73-.12-2.56-.12a13.16,13.16,0,0,0-4.28.58v-4.87c-1.41,3.59-4.13,4.95-6.76,4.95a5.68,5.68,0,0,1-4.29-1.57c-1-1.1-1.37-2.79-1.37-5.39V112c0-2.47-.72-3.64-3.11-3.64v-.86c.86.08,1.73.12,2.55.12a13.64,13.64,0,0,0,4.29-.57v16.2c0,2.55.16,4.73,3.11,4.73,3.22,0,5.58-3.26,5.58-7.47V112c0-2.47-.75-3.64-3.14-3.64v-.86c.86.08,1.73.12,2.55.12a13.55,13.55,0,0,0,4.29-.57Z" style="fill:#263238"></path><path d="M260.17,104.28V105c-.89.19-1.89.9-2.66,2.92l-7.9,20.38h-.54l-8.21-21.15c-.67-1.71-1.61-2.12-2.31-2.15v-.68c.9.07,2.31.1,3.59.1,1.74,0,3.37,0,4.3-.1V105c-1.61.06-2.38.31-2.38,1.25a4.47,4.47,0,0,0,.4,1.57l6.09,16.16,5.48-14.2a8.08,8.08,0,0,0,.68-2.75c0-1.47-1-2-2.94-2v-.68c1.28.07,2.69.1,3.87.1A23.57,23.57,0,0,0,260.17,104.28Z" style="fill:#263238"></path><path d="M169.37,101.58c1.31,1.33,1.65,2.86,1.65,5.77v11.46c0,1.32.32,2,1.27,2a2.78,2.78,0,0,0,1.85-.87l.46.71a5.54,5.54,0,0,1-3.76,1.51c-2.88,0-3.54-1.73-3.54-3.67a7.2,7.2,0,0,1-6.34,3.67c-2.76,0-5.24-1.39-5.24-4.61s2.52-4.71,6.65-6.44c2.75-1.15,4.93-1.85,4.93-3.51V105c0-3.46-1.69-4.15-3.83-4.15-1.41,0-3.14.28-4.08,1.47a2.55,2.55,0,0,1,1.93,2.52,2.16,2.16,0,0,1-2.42,2.23,2.25,2.25,0,0,1-2.23-2.55,3.66,3.66,0,0,1,1.93-2.94,10.59,10.59,0,0,1,5.78-1.55A7.05,7.05,0,0,1,169.37,101.58Zm-2.07,7.67c-.45.66-1.35,1.08-4,2.35-1.81.87-4,2.05-4,5.23,0,2.48,1.41,3.63,3.3,3.63,1.65,0,3.26-.87,4.65-3.12Z" style="fill:#263238"></path><path d="M119.34,150.05c2,2.06,2.57,4.44,2.57,9v17.82c0,2.06.5,3,2,3a4.37,4.37,0,0,0,2.88-1.35l.72,1.09c-1.78,1.35-3.13,2.35-5.86,2.35-4.47,0-5.51-2.69-5.51-5.7a11.19,11.19,0,0,1-9.86,5.7c-4.3,0-8.15-2.16-8.15-7.17s3.92-7.33,10.34-10c4.29-1.79,7.67-2.88,7.67-5.45v-4c0-5.39-2.63-6.45-6-6.45-2.19,0-4.89.44-6.36,2.29a3.94,3.94,0,0,1,3,3.91c0,2.19-1.47,3.48-3.76,3.48s-3.48-1.66-3.48-4c0-1.88,1.23-3.35,3-4.57a16.54,16.54,0,0,1,9-2.42C115.17,147.63,117.87,148.57,119.34,150.05ZM116.11,162c-.69,1-2.1,1.69-6.14,3.66-2.82,1.35-6.23,3.2-6.23,8.15,0,3.85,2.19,5.63,5.14,5.63,2.56,0,5.07-1.34,7.23-4.85Z" style="fill:#263238"></path><path d="M275.23,142.48c5,.67,6.44,3.13,6.44,5.68,0,3.59-2.85,6.11-7.57,6.11-.94,0-2.83-.09-5.42-.09-1.48,0-3,0-3.91.09v-.63c2.14-.09,2.56-.42,2.56-2.71V135.3c0-2.29-.42-2.62-2.56-2.71V132c.88.06,2.47.09,3.85.09,2,0,4-.06,4.75-.06,4.42,0,6.65,2,6.65,5,0,2.23-1.26,4.4-4.79,5.47Zm-5-7.18v7.12h2.12c3.71,0,4.63-2.4,4.63-5.14,0-3.09-1.26-4.69-4.41-4.69C270.67,132.59,270.25,133.13,270.25,135.3ZM278.51,148c0-3.2-1.61-5.06-5.61-5.06h-2.65v8c0,2.2.42,2.62,2.37,2.62C276.74,153.55,278.51,151.56,278.51,148Z" style="fill:#263238"></path><path d="M188.55,166.3c-2.06.09-2.46.4-2.46,2.61V184c0,2.2.4,2.51,2.46,2.6v.61c-1-.06-2.46-.09-3.85-.09-1.59,0-3,0-3.88.09v-.61c2.05-.09,2.44-.4,2.44-2.6V167.72l-7.3,19.6h-.49l-7.64-19.69v16c0,2.22.4,2.82,2.75,2.91v.61c-.73-.06-2.06-.09-3.09-.09s-2.15,0-2.82.09v-.61c2.06-.09,2.46-.69,2.46-2.91V168.91c0-2.21-.4-2.52-2.46-2.61v-.61c.67.06,1.79.09,2.82.09.88,0,1.92,0,2.59-.09l6.66,17.6,6.52-17.51h1.44c1.39,0,2.9,0,3.85-.09Z" style="fill:#263238"></path><path d="M299.89,177.69c0,8.29-5,13.77-13.78,13.77-1.15,0-3.7-.11-5.34-.11s-3.66,0-4.72.11v-.76c2.59-.11,3.09-.5,3.09-3.27V168.54c0-2.77-.5-3.16-3.09-3.27v-.76c.88.05,2.31.13,3.72.13l.93,0c1.75,0,4.3-.11,5.75-.11C295.52,164.51,299.89,169.19,299.89,177.69Zm-17.22-9.22v19c0,2.66.5,3.28,2.86,3.28,8.3,0,10.55-4.65,10.55-12.94,0-8.54-2.7-12.65-10.58-12.65C283.17,165.19,282.67,165.84,282.67,168.47Z" style="fill:#263238"></path><path d="M166.93,137.44c-1.28.05-1.53.25-1.53,1.62v9.33c0,1.37.25,1.56,1.53,1.56h1.37c2.36,0,2.82-.9,3.09-3.52h.43c0,.4,0,.94,0,1.54s0,1.46.13,2.41c-1.28,0-3.05,0-4.31,0s-3.61,0-5.46,0V150c1.28-.05,1.53-.24,1.53-1.61v-9.33c0-1.37-.25-1.57-1.53-1.62v-.38c.53,0,1.44.06,2.41.06s1.81,0,2.39-.06Z" style="fill:#263238"></path><path d="M260.07,168.76c-1.39.06-1.66.27-1.66,1.76v10.21c0,1.5.27,1.71,1.66,1.71h1.51c2.57,0,3.08-1,3.37-3.85h.48c0,.43-.06,1-.06,1.69,0,.51,0,1.58.14,2.63-1.4-.06-3.34-.06-4.71-.06s-3.95,0-6,.06v-.41c1.4-.06,1.67-.27,1.67-1.77V170.52c0-1.49-.27-1.7-1.67-1.76v-.41c.57,0,1.57.06,2.63.06s2,0,2.61-.06Z" style="fill:#263238"></path><path d="M152.66,161v.35c-.46.1-1,.47-1.38,1.51l-4.08,10.54h-.28l-4.25-10.94c-.35-.88-.83-1.09-1.2-1.11V161c.47,0,1.2.05,1.86.05.9,0,1.74,0,2.23-.05v.35c-.83,0-1.23.16-1.23.64a2.28,2.28,0,0,0,.2.82l3.15,8.36,2.84-7.35a4.18,4.18,0,0,0,.35-1.42c0-.76-.53-1-1.52-1.05V161c.66,0,1.39.05,2,.05S152.31,161.06,152.66,161Z" style="fill:#263238"></path><path d="M232.22,142.06c0,1.27.38,1.86,1.61,1.86v.45c-.45,0-.89-.06-1.31-.06a6.72,6.72,0,0,0-2.21.3V142.1a3.64,3.64,0,0,1-3.47,2.55,2.91,2.91,0,0,1-2.2-.81,3.93,3.93,0,0,1-.7-2.77v-5.31c0-1.27-.37-1.87-1.6-1.87v-.45a11.62,11.62,0,0,0,1.31.07,7.29,7.29,0,0,0,2.2-.29v8.32c0,1.31.08,2.43,1.6,2.43s2.86-1.68,2.86-3.84v-4.37c0-1.27-.38-1.87-1.61-1.87v-.45a11.88,11.88,0,0,0,1.31.07,7.31,7.31,0,0,0,2.21-.29Z" style="fill:#263238"></path><path d="M203.35,128c4.92.65,6.34,3.08,6.34,5.6,0,3.54-2.8,6-7.46,6-.93,0-2.8-.1-5.35-.1-1.45,0-3,0-3.85.1V139c2.11-.09,2.52-.41,2.52-2.67V120.93c0-2.26-.41-2.58-2.52-2.67v-.63c.86.06,2.43.1,3.79.1,2,0,4-.07,4.69-.07,4.36,0,6.56,2,6.56,4.89,0,2.2-1.24,4.34-4.72,5.41Zm-4.92-7.09v7h2.1c3.65,0,4.57-2.37,4.57-5.07,0-3.06-1.25-4.63-4.36-4.63C198.84,118.26,198.43,118.79,198.43,120.93Zm8.15,12.55c0-3.16-1.59-5-5.54-5h-2.61v7.86c0,2.17.41,2.58,2.34,2.58C204.84,138.93,206.58,137,206.58,133.48Z" style="fill:#263238"></path><path d="M237.37,165.91a1.92,1.92,0,0,0,1,.42c.37,0,.53-.45.64-1.3h.68c-.09,1-.14,2.3-.14,6h-.68c-.22-2.81-1.57-5.67-4.84-5.67a3.36,3.36,0,0,0-3.6,3.42c0,2.68,2.31,3.75,5,5.4,3.06,1.92,5.31,3.47,5.31,6.64,0,3.74-2.84,5.6-6.26,5.6a6.91,6.91,0,0,1-4-1.09,1.93,1.93,0,0,0-1-.42c-.38,0-.54.44-.65,1.29h-.68c.09-1.21.12-2.9.12-7.07h.67c.25,3.57,1.6,6.7,5.37,6.7a3.63,3.63,0,0,0,3.83-3.93c0-2.39-1.85-3.74-4.59-5.39s-5.25-3.28-5.25-6.6c0-3.49,2.63-5.12,5.54-5.12A5.57,5.57,0,0,1,237.37,165.91Z" style="fill:#263238"></path><path d="M212.85,171.67a5.77,5.77,0,0,1-5.51,4c-4.28,0-6.78-3.13-6.78-7.65,0-5.18,2.62-8.36,6.66-8.36,3.46,0,5.52,2,5.52,6.48h-9.22a15.82,15.82,0,0,0-.1,1.88c0,4.05,2.25,6.41,4.51,6.41a4.48,4.48,0,0,0,4.33-2.95Zm-9.37-6.14h6.42c.1-2.88-.82-5.35-2.79-5.35C205.35,160.18,203.8,161.82,203.48,165.53Z" style="fill:#263238"></path></g><g id="freepik--Character--inject-3"><path d="M88.39,337.52,77.82,360.69,94.55,369l6.5-13.5c2.4-4.29,1.17-10.59-2-14.37C97.79,339.6,93.66,336.28,88.39,337.52Z" style="fill:#54A9EB"></path><path d="M88.39,337.52,77.82,360.69,94.55,369l6.5-13.5c2.4-4.29,1.17-10.59-2-14.37C97.79,339.6,93.66,336.28,88.39,337.52Z" style="fill:#fff;opacity:0.2"></path><path d="M117.16,327.6s17.47,4.08,21.8,11.34,4.17,22.41,1,39.45,1.32,18.22-7.17,25.23-45.77,6.3-48.94-1.74c-2.62-6.67,8.47-31.05,6.13-43.07s-6.06-19,1.32-24.59S117.16,327.6,117.16,327.6Z" style="fill:#54A9EB"></path><path d="M117.16,327.6s17.47,4.08,21.8,11.34,4.17,22.41,1,39.45,1.32,18.22-7.17,25.23-45.77,6.3-48.94-1.74c-2.62-6.67,8.47-31.05,6.13-43.07s-6.06-19,1.32-24.59S117.16,327.6,117.16,327.6Z" style="fill:#fff;opacity:0.4"></path><path d="M96.59,292.79c-1.79-1.21-6.6-.23-8.18,3.29-1.69,3.75-3.4,10.36-5.73,9.26a4.69,4.69,0,0,0,4.88,2.17s-1.49,2.65-4.24,2.44a7.33,7.33,0,0,0,7,3.34c4.55-.39,7.72-14.39,8.21-16.68C98,294.34,97.87,294.47,96.59,292.79Z" style="fill:#263238"></path><path d="M99.45,292.71a14.54,14.54,0,0,1,11.58.7c2.34,1.22,4.36,3.08,4.31,5.88a156.52,156.52,0,0,1-2,17.4l-22-10s-1.48-6,.82-9.62C93.42,295.19,96.64,293.7,99.45,292.71Z" style="fill:#263238"></path><path d="M96,293.17s5.34-6.07,15.36-1.72,4.13,17.85,4.13,17.85-1.55,5.72,1.15,6.41A6.91,6.91,0,0,1,114,316.8s1.19,1.35,2.22,1c0,0-1.34.93-4.24.37S96,293.17,96,293.17Z" style="fill:#263238"></path><path d="M103.75,324.77h0l0,.08,1.38,3.6a12.5,12.5,0,0,1,.19,4.07c-.4,1.4-.33,3.81,2.09,3.48,3.64-.49,9.8-6.43,9.87-8.07-2.23-4.82-4.27-10.52-4.51-15.32l-3.69,5Z" style="fill:#ffb573"></path><g style="opacity:0.2"><path d="M103.79,324.86l1.38,3.6c2.18-1.29,4.33-3.8,4.62-6.29.2-1.8-.77-3.36-1.49-3.38Z"></path></g><path d="M93.7,318.07c.3.79.63,1.56,1,2.31,3,6.68,11.66,6.39,16.42.73l0,0a12.67,12.67,0,0,0,1.17-1.64c2.9-4.8,1.69-8.12.35-15.81a10.63,10.63,0,0,0-16.73-6.92C89.81,301.06,90.66,310.24,93.7,318.07Z" style="fill:#ffb573"></path><path d="M102,310.55c.15.6,0,1.17-.44,1.28s-.84-.31-1-.91,0-1.18.43-1.28.84.31,1,.91" style="fill:#263238"></path><path d="M95.67,312.08c.16.61,0,1.18-.43,1.28s-.84-.31-1-.91,0-1.17.44-1.27.84.3,1,.9" style="fill:#263238"></path><path d="M100.88,318.68l-.21,0a.25.25,0,0,1-.25-.24.24.24,0,0,1,.24-.24,3.48,3.48,0,0,0,3.35-3.73.24.24,0,1,1,.48,0A4,4,0,0,1,100.88,318.68Z" style="fill:#263238"></path><path d="M112.79,304.34s-2.32.36-2.21,2.37.34,2.25.34,2.25l-2.7.87s0-7.71-2-7.4-.18-3.36-1.44-3.73c-3-.87-10.75-.13-13.26,4.86A11.87,11.87,0,0,1,95.23,296c3.43-2.87,10.79-4.17,14.17-.84S112.79,304.34,112.79,304.34Z" style="fill:#263238"></path><path d="M117.09,307.91a7.45,7.45,0,0,1-2.44,5.12c-1.94,1.72-4.05.26-4.46-2.17-.37-2.19.19-5.72,2.6-6.52a3.34,3.34,0,0,1,4.3,3.57" style="fill:#ffb573"></path><path d="M92.44,309.81a.29.29,0,0,0,.22-.21,1.61,1.61,0,0,1,.74-1,1.79,1.79,0,0,1,1.27-.1.31.31,0,0,0,.39-.2.31.31,0,0,0-.2-.39,2.4,2.4,0,0,0-1.75.15,2.19,2.19,0,0,0-1,1.41.3.3,0,0,0,.21.38A.22.22,0,0,0,92.44,309.81Z" style="fill:#263238"></path><path d="M103.79,307.4a.33.33,0,0,0,.13-.07.34.34,0,0,0,0-.48,2.69,2.69,0,0,0-1.76-.82,2.42,2.42,0,0,0-1.77.79.34.34,0,1,0,.47.49,1.78,1.78,0,0,1,1.28-.59,2.09,2.09,0,0,1,1.28.59A.33.33,0,0,0,103.79,307.4Z" style="fill:#263238"></path><path d="M97.57,310.11a6.82,6.82,0,0,1-1.22,3.72c-1.24,1.67,2.09,2.1,2.09,2.1Z" style="fill:#ed893e"></path><path d="M111.4,404.58s-53-27.72-60.12-7.07c-5.7,16.49,31.79,39.67,64.28,41.4Z" style="fill:#263238"></path><polygon points="84.93 430.57 97.42 430.04 92.4 436.63 80.33 437.39 84.93 430.57" style="fill:#ffb573"></polygon><path d="M88.3,430.12s-8.72-2.41-12.3-.45c-5.62,3.07-15.09,7.25-14,11.85s20.53-3.4,20.53-3.4Z" style="fill:#54A9EB"></path><path d="M84.72,433s3,.21,2.33,2.5-4.55,2.62-4.55,2.62Z" style="fill:#54A9EB"></path><path d="M102.35,403.64s57.45-24.61,59.8-1.12c1.74,17.32-34.11,32.75-73,35.57Z" style="fill:#263238"></path><path d="M114.39,430c-9.48-6.69-24.24-15.84-40-25.46,12.66,6.32,21.23,10.95,27.5,14.75,7.5-4.58,18-8.05,26.81-10.72-7.69,4-18.15,8.62-25.06,12.69C111.57,426.75,114.26,429.88,114.39,430Z" style="opacity:0.2"></path><polygon points="120.12 431.39 114.73 432.08 115.47 438.16 125.07 437.95 120.12 431.39" style="fill:#ffb573"></polygon><path d="M116.73,431.12S125.3,428.25,129,430c5.77,2.76,15.45,6.42,14.64,11.08s-20.69-2.3-20.69-2.3Z" style="fill:#54A9EB"></path><path d="M120.45,433.8s-2.93.37-2.19,2.62,4.68,2.37,4.68,2.37Z" style="fill:#54A9EB"></path><path d="M143,354.1c1.32,5.78,2.37,11.48,3.16,17.33.41,2.92.73,5.86,1,8.85a90.17,90.17,0,0,1,.32,9.3c0,.83-.09,1.69-.19,2.62a16.87,16.87,0,0,1-.7,3.37c-.06.17-.12.36-.22.59s-.16.39-.3.67-.26.49-.46.8l-.34.47a4.64,4.64,0,0,1-.41.48c-.17.18-.35.36-.54.53l-.31.26-.45.3a6.34,6.34,0,0,1-1.74.78,7.41,7.41,0,0,1-2.25.22,9.29,9.29,0,0,1-2.33-.47,15.19,15.19,0,0,1-1.5-.59,35.94,35.94,0,0,1-4.4-2.49c-1.31-.85-2.54-1.75-3.75-2.64A153.57,153.57,0,0,1,114.12,383l3.93-5.1c4.88,2.91,9.84,5.86,14.71,8.53,1.22.66,2.45,1.28,3.63,1.86a24.52,24.52,0,0,0,3.33,1.38,4,4,0,0,0,.54.12c.1,0,.16,0-.22-.07a3.44,3.44,0,0,0-1.17.12,4.46,4.46,0,0,0-1.25.55,2.62,2.62,0,0,0-.34.24l-.21.17a2.73,2.73,0,0,0-.35.33,4.71,4.71,0,0,0-.76,1.1,5.14,5.14,0,0,1,0-.89c0-.5,0-1.09-.07-1.69-.18-2.47-.55-5.22-1-7.93s-.94-5.5-1.44-8.27l-3.14-16.68Z" style="fill:#ffb573"></path><path d="M90,380a115.66,115.66,0,0,1-8.4,10.61c-.74.86-1.54,1.7-2.38,2.55a32.76,32.76,0,0,1-2.85,2.58c-.29.23-.63.45-1,.71a7.58,7.58,0,0,1-1.79.84,7.39,7.39,0,0,1-.93.21c-.17,0-.49,0-.73,0h-.4l-.54-.05-.58-.14-.63-.21a5.11,5.11,0,0,1-1.31-.78,6.06,6.06,0,0,1-1-1.16,4.87,4.87,0,0,1-.57-1.08l-.1-.28-.06-.19-.11-.4a6.41,6.41,0,0,1-.1-.72c0-.16,0-.34,0-.52s0-.33,0-.43,0-.5.06-.67l.1-.52c.15-.71.31-1.46.48-2.05s.32-1.21.51-1.76c1.77-4.86,3.37-8.69,5.11-12.82s3.88-8.72,5.87-12.66l9.68,4.81c-1.73,3.86-3.55,8.83-5.4,12.63,0,0,0,0,0,0l3-2.46Z" style="fill:#ffb573"></path><path d="M84.27,376.3s-10.42,6.28-12.37,8.45c0,0,7.36-7.33,13.08-11Z" style="opacity:0.2"></path><path d="M137.59,337.35c3.49,3.15,8.23,12,9.28,29.47l-16.45,1s-4.11-15.55-3.88-24.54c.09-3.37,1.29-5.33,2.76-6.45A6.52,6.52,0,0,1,137.59,337.35Z" style="fill:#54A9EB"></path><path d="M137.59,337.35c3.49,3.15,8.23,12,9.28,29.47l-16.45,1s-4.11-15.55-3.88-24.54c.09-3.37,1.29-5.33,2.76-6.45A6.52,6.52,0,0,1,137.59,337.35Z" style="fill:#fff;opacity:0.2"></path><polygon points="86.29 385.41 101.03 390.5 117.67 388.75 115.72 365.19 99.58 366.64 84.77 361.74 86.29 385.41" style="fill:#54A9EB"></polygon><polygon points="85.3 361.92 86.46 361.13 99.64 365.54 114.91 364.13 115 365.26 99.58 366.64 85.3 361.92" style="fill:#f5f5f5"></polygon><polygon points="99.58 366.64 101.03 390.5 86.29 385.41 84.77 361.74 99.58 366.64" style="opacity:0.2"></polygon><path d="M118.4,376s.44-.45-.22-2.08a8.41,8.41,0,0,0-2-3l.34,4.9s-3.23,1.72-3.44,4.25c-.42,5.1,2.91,6.46,4,6.74s2.84-2.67,2.91-5.74A8.09,8.09,0,0,0,118.4,376Z" style="fill:#ffb573"></path><path d="M83.63,374.44s-.48-.39,0-2.09a8.64,8.64,0,0,1,1.61-3.24l.34,4.88s3.33,1.34,3.85,3.83c1,5-2.11,6.76-3.12,7.18s-3.14-2.32-3.59-5.35A8.22,8.22,0,0,1,83.63,374.44Z" style="fill:#ffb573"></path></g></svg>
